<?xml version="1.0" encoding="utf-8"?>
<!-- Generator: Adobe Illustrator 24.1.1, SVG Export Plug-In . SVG Version: 6.00 Build 0)  -->
<svg version="1.1" xmlns="http://www.w3.org/2000/svg" xmlns:xlink="http://www.w3.org/1999/xlink" x="0px" y="0px"
	 viewBox="0 0 200 210" style="enable-background:new 0 0 200 210;" xml:space="preserve">
<style type="text/css">
	.st0{display:none;}
	.st1{display:inline;fill:#DEDEDE;}
	.st2{display:inline;}
	.st3{fill:#ED6838;}
	.st4{fill:#339FC4;}
	.st5{fill:#114D87;}
	.st6{display:inline;opacity:0.89;fill:#DEDEDE;enable-background:new    ;}
	.st7{display:inline;fill:none;}
	.st8{fill:none;}
	.st9{enable-background:new    ;}
	.st10{fill:#234369;}
	.st11{font-family:'ArialMT';}
	.st12{font-size:18px;}
</style>
<g id="Capa_2">
</g>
<g id="Capa_1">
	<g id="logo-blumar">
		<g class="st0">
			<circle class="st1" cx="100.3" cy="104.8" r="100"/>
			<g class="st2">
				<g>
					<path class="st3" d="M32.3,102.5C41.9,92,52.8,83.9,65.2,78.4c9.8-4.5,20.1-6.8,30.8-6.6c17.6,0.3,32.9,7.1,46.5,18.8
						c7.1,6.1,13.4,12.9,18.7,20.7c0.5,0.7,1.6,1.3,1.1,2.4c-0.6,1.3-1.9,1.4-3,1.3c-4.3-0.4-8.7-0.5-13-1.2
						c-11.7-1.6-23.1-4.3-33.9-9.6c-6.1-2.9-11.7-6.7-16.9-11.3c-8.8-7.9-19-8.8-29.8-6.2c-11.3,2.8-20.9,8.6-30.4,14.8
						C34.4,102,33.7,102.9,32.3,102.5z"/>
					<path class="st4" d="M40.9,69.2c7-7.5,14.8-13.6,23.4-18.5c11.1-6.2,23-9.9,35.5-10.1c13.9-0.2,26.9,3.8,38.9,11.5
						c11.2,7.2,20.4,16.9,28.4,27.9c0.5,0.7,1.7,1.3,1.1,2.4c-0.5,1.1-1.7,1.3-2.9,1.3c-6.5-0.2-13-1.2-19.4-2
						c-0.9-0.1-1.6-0.7-2.3-1.3c-8.5-7.1-17.9-12.3-28.2-15.5c-2.1-0.6-4.3-1.1-6.5-1.3c-4.3-0.4-7.9-2.4-11.4-4.9
						c-7.9-5.4-16.5-5.4-25.4-3.2c-9.9,2.4-18.8,7.2-27.5,12.7C43.5,68.7,42.5,69.4,40.9,69.2z"/>
				</g>
				<g>
					<path class="st5" d="M108.5,143.4c2.1-5.8,4.1-11.3,6-16.8c0.4-1.1,0.8-1.4,1.7-1.4c3.5-0.2,3.7-0.2,4.2,3.6
						c1.1,7,1.9,14,3,20.9c0.3,1.8-0.3,2.3-1.7,2.3c-1.4,0.1-3.2,0.8-3.4-1.9c-0.4-4.5-0.9-9.1-1.4-13.6c-0.2-1.1-0.3-2.3-0.5-3.3
						c-1.2,0-1.1,1.1-1.2,1.6c-1.6,4.8-3.2,9.6-4.7,14.5c-0.5,1.4-1.1,2.3-2.5,2.4c-1.3,0.2-2-0.2-2.5-1.7
						c-1.5-5.1-3.1-10.1-4.7-15.2c-0.2-0.6-0.2-1.3-1.1-1.7c-0.5,3.5-1,7-1.4,10.4c-0.3,2.3-0.6,4.6-1,6.8c-0.5,2.9-2.3,1.4-3.5,1.4
						c-1.5-0.1-0.7-1.4-0.5-2.3c1.1-7.6,2.3-15.2,3.4-22.7c0.2-1.1,0.5-1.5,1.4-1.6c3.8-0.2,3.8-0.2,5.1,3.7
						c1.4,4.3,2.9,8.5,4.4,12.8C107.9,142,108.2,142.5,108.5,143.4z"/>
					<path class="st5" d="M40.3,136.8c4.1,2.6,5.3,4.9,4.5,8.7c-0.6,3.2-3.5,6-7.4,6.5c-3.5,0.5-7,0.3-10.4-0.2
						c-1.1-0.2-1.4-0.6-1.4-1.7c0-7.9,0-15.8,0-23.6c0-0.9,0.1-1.7,1.1-1.7c3.2-0.1,6.2-0.9,9.5-0.3c2.9,0.5,5.6,1.1,6.8,4.4
						C44.2,132.3,42.7,134.7,40.3,136.8z M30.7,144.1c0,5.1,0.7,5.8,4.7,4.8c2.8-0.6,4.4-2.9,3.9-5.9c-0.5-2.8-2.9-4.1-7.2-3.6
						c-2.8,0.3-0.8,2.9-1.4,4.2C30.7,143.8,30.7,144,30.7,144.1z M33.9,136.1c1.3-0.2,3.1,0.5,3.9-1.6c0.8-1.9,1-3.8-0.3-5.5
						c-0.9-1.2-4.8-2.2-6.2-1.3c-1.4,0.9-0.4,2.6-0.6,4c-0.1,0.4,0,0.8,0,1.2C30.7,136.2,30.7,136.2,33.9,136.1z"/>
					<path class="st5" d="M154.4,138.8c0-4,0-8,0-11.9c0-1.1,0.2-2,1.4-2c3.6-0.1,7.2-1,10.9-0.2c2.9,0.7,5,2.1,5.6,5.5
						c0.6,3.3-0.2,5.9-2.9,7.8c-1.4,1.1-1.8,1.5-0.5,3.2c2.3,2.9,3.7,6.7,5.9,9.8c0.5,0.8-0.1,0.9-0.6,1.1c-2.6,0.8-4.8,0-6.3-2.6
						c-1.2-2-2.3-4.2-3.3-6.4c-0.8-1.7-2-2.6-3.8-2.5c-1.2,0.1-1.6,0.5-1.5,1.7c0.1,2.6,0.1,5,0,7.6c-0.1,1.8-1.3,2.4-4.1,2.2
						c-1.7-0.2-0.9-1.4-0.9-2.2C154.3,146.2,154.3,142.5,154.4,138.8C154.3,138.8,154.4,138.8,154.4,138.8z M159.4,132.6
						c0,5.2,0,5.2,4.1,4.9c2.1-0.2,3.2-1.4,3.5-3.5c0.5-2.6-0.3-4.9-2-5.7c-1.7-0.9-3.7-1.1-5.3-0.3c-1.1,0.5-0.2,2.6-0.5,3.8
						C159.4,132,159.4,132.3,159.4,132.6z"/>
					<path class="st5" d="M147.1,152.1c-0.8,0.1-1.4-0.3-1.8-1.2c-0.2-0.5-0.4-0.9-0.5-1.4c-0.8-1.7-0.6-4.6-2.3-5
						c-2.6-0.7-5.4-0.2-8.1-0.2c-0.7,0-0.8,0.8-1,1.2c-0.7,1.7-1.3,3.3-1.9,5c-0.4,1.1-0.9,1.6-2,1.5c-3.3-0.2-3.3-0.3-2-3.5
						c2-4.7,3.8-9.5,5.7-14.3c1.1-2.8,2.6-5.4,3.3-8.5c0.2-1.2,2-0.8,3-1c1.2-0.2,1.8,0.5,2.2,1.6c2.5,6.6,5,13.2,7.4,19.9
						c0.2,0.6,0.5,1.2,0.7,1.8C151.3,151.8,151,152.2,147.1,152.1z M138.2,131.7c-0.5,1.7-0.9,3-1.4,4.3c-1.7,5.3-1.6,5.5,3.6,4.8
						c0.2,0,0.3,0,0.5,0c0.6-0.1,0.8-0.6,0.6-1.1C140.4,137.2,139.9,134.4,138.2,131.7z"/>
					<path class="st5" d="M67.6,133.5c0-1.7-0.1-3.5,0-5.1c0-1.1-0.5-2.7,0.2-3c1.3-0.5,2.8-0.3,4.2-0.2c1.1,0.1,0.7,1.1,0.7,1.8
						c0.1,4.1,0.1,8.3,0,12.5c0,1.5,0.2,2.9,0.5,4.4c0.8,3.2,2.8,4.8,5.6,4.8c2.9,0,4.9-1.7,5.6-5.1c0.3-1.5,0.5-3.1,0.5-4.6
						c0.1-3.7,0.2-7.4,0-11c-0.1-2.2,0.5-2.9,2.6-2.8c1.4,0.1,1.4,0.3,1.6,1.9c0.5,4.8,0.2,9.5,0.2,14.3c-0.2,5.6-2.6,9.4-6.9,10.6
						c-2.6,0.8-5.2,0.7-7.7,0.1c-3.9-1.1-5.8-4.1-6.5-8.2C67.4,140.4,67.6,136.9,67.6,133.5z"/>
					<path class="st5" d="M64.7,148.2c-0.5,2.9-1.1,3.7-3.8,3.8c-3.1,0.1-6.2,0-9.3-0.2c-1.3-0.2-1.7-0.6-1.7-2
						c0-7.9-0.1-15.8-0.2-23.6c0-0.8,0-1.2,1.1-1.1c4.1,0.4,4.1,0.3,4.1,4.6c0,5.6,0,11-0.1,16.6c0,1.4,0.3,2.1,1.7,2
						C59.4,148.2,62,148.2,64.7,148.2z"/>
					<path class="st5" d="M141.4,163c0.1-3.4,1.7-5.4,4.4-5.3c2.6,0.1,4.5,2.5,4.4,5.7c-0.1,3.4-1.9,5.5-4.7,5.4
						C142.7,168.7,141.3,166.6,141.4,163z M142.4,163.3c0,2.3,1.5,4.4,3.2,4.4c1.3,0,3.2-2.7,3.2-4.4c0-1.8-2-4.3-3.5-4.4
						C143.9,158.9,142.4,161.2,142.4,163.3z"/>
					<path class="st5" d="M136.1,163.2c0,3.5-1.7,5.6-4.4,5.6s-4.4-2.2-4.4-5.6c0-3.3,1.9-5.6,4.6-5.5
						C134.4,157.7,136.1,160,136.1,163.2z M131.7,158.8c-2,0.1-3.2,1.7-3.1,4.5c0,2.5,1.4,4.3,3.2,4.2s3.2-2,3.2-4.4
						C135,160.7,133.6,158.8,131.7,158.8z"/>
					<path class="st5" d="M99.2,168.1c-1.7,0.9-3.4,0.5-5,0.4c-0.5-0.1-0.5-0.7-0.5-1.2c0-2.7,0-5.3,0-8c0-1.1,0.5-1.4,1.4-1.4
						c0.7,0,1.4,0,2,0c0.5,0.1,1.5-0.4,1.5,0.5c0,1.2-1.1,0.5-1.6,0.6c-0.9,0.2-2.1-0.5-2.1,1.6c0,1.7,0.5,2.1,2,2
						c0.5-0.1,1.5-0.3,1.5,0.5c0.1,1.1-1,0.8-1.6,0.8c-1.5-0.2-1.9,0.4-2,2c0,1.7,0.8,1.8,2,1.7C97.6,167.5,98.4,167.2,99.2,168.1z"
						/>
					<path class="st5" d="M108.2,157.9c0.7,0,0.8,0.5,1.1,1.1c1.1,2.8,2,5.6,3.1,8.3c0.2,0.4,0.5,1-0.1,1.2c-0.5,0.2-0.8-0.4-1-0.8
						c-1.6-2.8-4.7-2.8-6.2,0.1c-0.2,0.5-0.5,0.9-1,0.8c-0.5-0.2-0.3-0.6-0.2-1.1c1.1-3,2.3-6,3.4-9
						C107.5,158.1,107.7,157.9,108.2,157.9z M108.1,159.5c-0.5,1.4-0.8,2.4-1.3,3.3c-0.8,1.7-0.2,2,1.3,2s2.1-0.3,1.4-2
						C109,161.9,108.7,160.9,108.1,159.5z"/>
					<path class="st5" d="M155.6,163.2c0-0.6-0.2-1.2,0-1.7c0.3-1.2-1-3.2,0.8-3.5c2-0.5,4.1-0.4,5.6,1.6c1.3,1.6,1.4,5.2,0.2,6.9
						c-1,1.5-4.3,2.7-5.9,2.2c-0.7-0.2-0.8-0.7-0.8-1.3C155.6,166,155.6,164.6,155.6,163.2z M156.7,163.3c0,1,0,2,0,2.9
						c0,0.8,0.2,1.2,1,1.3c1.9,0.2,3.6-1,4.1-3c0.6-2.2-0.3-4.4-2-5.1c-2.3-1-3.1-0.5-3.2,2.2C156.7,162.1,156.7,162.7,156.7,163.3z
						"/>
					<path class="st5" d="M170.4,168.7c-0.2,0-0.5,0-0.7-0.1c-0.6-0.2-1.7,0.1-1.7-0.8c0.1-1,1-0.5,1.7-0.4c1.3,0.3,2.6,0.2,3-1.4
						c0.5-1.4-0.8-1.9-1.7-2.5c-0.5-0.3-0.9-0.5-1.4-0.9c-1.4-1-1.7-2.2-0.8-3.8c0.8-1.3,3.3-1.9,4.3-1.1c0.2,0.2,0.3,0.4,0.3,0.6
						c0,0.2-0.2,0.4-0.4,0.4c-0.3,0.1-0.6-0.1-0.9-0.1c-1-0.1-2.1-0.2-2.4,1.2c-0.3,1.4,0.8,1.8,1.7,2.3c0.3,0.2,0.5,0.3,0.8,0.5
						c1.4,0.8,2.2,2,1.7,3.8C173.5,168.1,172.3,168.8,170.4,168.7z"/>
					<path class="st5" d="M87.9,158.8c-1.5,0.6-3.5-0.7-3.9,1.4c-0.4,1.9,1.6,2,2.6,2.9c1.7,1.3,2.1,2.9,1.2,4.4
						c-0.8,1.3-3.3,1.9-4.6,1.1c-0.3-0.2-0.5-0.3-0.5-0.7c0.1-0.6,0.5-0.5,0.9-0.4c0.7,0.2,1.4,0.4,2,0.2c0.7-0.2,1.3-0.6,1.4-1.4
						c0.2-0.8-0.2-1.3-0.8-1.7c-0.6-0.5-1.3-0.9-2-1.3c-1.6-1-2.3-2.3-1.3-4.1C83.9,157.5,86,157.3,87.9,158.8z"/>
					<path class="st5" d="M122.6,158.2c-0.6,0.9-1.2,0.6-1.7,0.8c-0.7,0.2-2-0.8-1.9,1c0.1,1.2-0.3,3,2,2.5c0.4-0.1,1.1-0.4,1.3,0.5
						c0.1,0.9-0.7,0.8-1.1,0.8c-2.3-0.5-2.4,1.1-2.3,2.9c0,0.6,0.4,1.8-0.5,1.8c-1,0-0.5-1.1-0.6-1.7c-0.1-2.1,0.1-4.3-0.1-6.4
						c-0.2-1.9,0.3-2.8,2.3-2.5C120.7,158,121.6,157.6,122.6,158.2z"/>
				</g>
			</g>
		</g>
		
			<image style="overflow:visible;" width="512" height="512" xlink:href="../kisspng-computer-icons-icon-design-balance-icon-5b3a0a0d104ce9.5057212415305303170668.png"  transform="matrix(0.3906 0 0 0.4102 0.3243 0)">
		</image>
	</g>
	<g id="Frase" class="st0">
		<circle class="st6" cx="100.3" cy="104.8" r="100"/>
		<rect x="85.2" y="55.1" class="st7" width="33.1" height="19.8"/>
		<g class="st2">
			<rect x="101.9" y="142.4" class="st8" width="82.9" height="25.3"/>
		</g>
		<g class="st2">
			<rect x="84.8" y="100.7" class="st8" width="113.7" height="16.3"/>
			<text transform="matrix(1 0 0 1 15.7132 93.4084)" class="st9"><tspan x="0" y="0" class="st10 st11 st12">Mantienen el balance </tspan><tspan x="14" y="21.6" class="st10 st11 st12">hídrico y climático </tspan><tspan x="25.5" y="43.2" class="st10 st11 st12">de las cuencas.</tspan></text>
		</g>
	</g>
</g>
</svg>
