<?xml version="1.0" encoding="utf-8"?>
<!-- Generator: Adobe Illustrator 22.1.0, SVG Export Plug-In . SVG Version: 6.00 Build 0)  -->
<svg version="1.1" id="Capa_1" xmlns="http://www.w3.org/2000/svg" xmlns:xlink="http://www.w3.org/1999/xlink" x="0px" y="0px"
	 viewBox="0 0 800 1944.1" style="enable-background:new 0 0 800 1944.1;" xml:space="preserve">
<style type="text/css">
	.st0{fill:none;}
	.st1{clip-path:url(#SVGID_22_);}
	.st2{fill:#76AADB;}
	.st3{fill:none;stroke:#F7F7F8;stroke-width:2;stroke-miterlimit:10;}
	.st4{fill:none;stroke:#F7F7F8;stroke-width:2;stroke-linejoin:round;stroke-miterlimit:10;}
	.st5{fill:none;stroke:#F7F7F8;stroke-width:2;stroke-linecap:round;stroke-linejoin:round;stroke-miterlimit:10;}
	.st6{font-family:'Lato-HeavyItalic';}
	.st7{font-size:24px;}
	.st8{font-family:'Lato-MediumItalic';}
</style>
<g>
	<path class="st2" d="M592.6,1856.8c-3.4-0.7-7.3,1-10.1-0.9c-1.3-0.9-2.1-2.4-3-3.7c-3.5-4.8-9.9-6.6-15.8-7.7
		c-16.7-3.3-33.8-4.4-50.8-3.5l-2-142.7l5.6-13.2l2.3-4.9c-9.7-3.1-19.8-7.2-29.5-10.4c-14.9-4.8-30-9.7-45.7-10.9
		c-10.7-0.8-21.5,0-32.3,0.8c-10.2,0.7-21,1.1-30.1-3.6c3.4-2.3,3.2-7.6,0.6-10.8c-2.3-2.8-5.8-4.3-9.3-5.5c-0.8-1-1.5-2.1-2.4-3
		c-0.9-1-1.9-2.2-2-3.6c0-0.9,0.4-1.8,0.8-2.6c0.1-0.1,0.1-0.1,0.2-0.2h0c0.1-0.2,0.2-0.4,0.3-0.6c3.1-5.6,3.7-12.5,1.4-18.5
		c-0.9-2.3-2.1-4.5-2-6.9c0.1-2.4,2.5-4.9,4.7-4.1c-0.3-5.5-0.7-11.1-1-16.6c-0.1-2-0.3-4-1.3-5.7c-2.6-4.3-10.5-2.7-11.3,2.2
		c-3-2.2-7.4-4.3-10.1-1.7c-1.1,1-1.5,2.5-2.3,3.8c-1.7,2.6-5.2,3.7-8,2.7c1.8-1.8,1.3-4.9-0.2-7c-1.5-2.1-3.6-3.5-5.3-5.4
		c-4.3-4.9-4.8-12-5-18.5c-0.2-4.9-0.4-9.8-0.5-14.8c-2.5-0.2-4.9-2.1-5.6-4.5c4.2-7.8,16.6-8.3,20.4-16.2c1.2-2.5,1.5-5.7,3.9-7.3
		c0.9-0.6,1.9-0.8,2.9-1.3c3.1-1.6,4.2-6.2,2.3-9.1c-3-0.6-6.4-1.4-8-4.1c-1.7-2.7-0.5-7.2,0.9-10.1c1.1-2.3,2.4-4.5,4.3-6
		c2-1.5,4.7-2.2,7-1.3c0.1-3,3.2-4.9,4.7-7.5c0.8-1.3,1.2-2.8,1.3-4.3c0.9-3.7,0.3-7.8-0.8-11.8c0-0.3,0-0.6,0-0.9
		c0-0.6,0.1-1.2,0.5-1.6c0.1-0.1,0.2-0.2,0.4-0.3c1,0.4,2.2,0.5,3.3,0.5c1,0.4,2.1,0.9,3.1,0.6c0-0.5,0-0.9,0-1.4
		c0.9-0.4,1.7-1,2.4-1.7c1.4-1.5,2-3.3,2.2-5.1c1-0.7,1.9-1.4,1.9-2.5c0-1.3-1.3-2.2-2.4-3.1c-0.6-2.5-1.7-5-2.8-7.2
		c-1.1-2.3-2.3-4.7-3.4-7c-1.2-2.4-2.4-5-2.1-7.7c0.3-3.1,2.2-7.2-0.6-8.6c6.9-1.7,10.6-11,6.6-16.9c4.2,0,8.4-2.6,10.2-6.4
		c0.8-1.6,1.2-3.4,2.4-4.6c1.2-1.3,3.7-1.5,4.5,0c0.8-4.8,0.3-9.8-1.4-14.4c-1.3-3.5-2.9-8.4,0.4-10.3c1-0.6,2.2-0.6,3.4-1
		c4-1.4,5.2-6.6,4.8-10.8c-0.5-4.2-2-8.5-1.1-12.6c0.4-1.8,1.3-3.6,0.6-5.3c-0.7-1.6-2.5-2.4-3.8-3.4c-1.4-1.1-2.3-3.3-1-4.4
		c1.4-0.7,2.9-1,4.4-0.9c3.7-2.9,2.2-8.8,0.4-13.2c-1.8-4.4-3.3-10.3,0.5-13.1c-0.7-1.1-1.3-2.1-2-3.2c3.5-0.9,7-1.8,10.4-2.8
		c-1.4-1.2-2.5-2.8-3.1-4.5c4.3,0.4,8.3-4,7.6-8.2c-2.8-1-4-3.6-5.1-6.4h0.4c-0.5-1.9-1.2-3.7-1.7-5.6c-0.2-0.7-0.4-1.3-0.8-1.8
		c-0.4-0.5-1-0.7-1.6-0.9c-0.5-0.2-1-0.4-1.5-0.6c-1.8-1.2-4-1.8-6.2-2.3c-0.4-0.1-0.9-0.3-1.4-0.3c-0.7-0.1-1.5-0.3-2.2-0.4
		c-2.1-0.4-4.4-1.2-6.1-2.4c0-0.1,0-0.3-0.1-0.4c-0.1-1.1-0.2-2.2-0.3-3.2c1.9,0.1,3.8-0.1,5.7-0.3c0.9,0.2,1.8,0.3,2.8,0.2
		c0.3,0,0.6-0.1,0.9-0.3c0.1-0.1,0.1-0.1,0.2-0.2c0.8,0,1.6,0,2.3,0.1c2.4,0.2,4.7,1.1,6.6,2.4c-0.7-2,2.3-3.5,4.3-2.9
		c2.1,0.6,3.8,2.3,5.9,2.5c1.8,0.2,3.8-1.7,3.3-3.2c0.5-1,0.6-2.1,0.2-3.2c0.2-1.5,0.1-3.1-0.6-4.1c1.2-1,3.6-1.1,4.6-2.6
		c0.2-0.3,0.3-0.6,0.3-0.9c0.9-0.7,1.7-1.4,2.5-2.2c-1.7-3-5.5-4.2-8.8-5c-0.5-0.1-1-0.2-1.5-0.4c-1-0.2-2-0.5-3-0.7
		c-5.1-1-10.4-1-15.4,0.2c-0.1,0-0.2-0.1-0.3-0.1c-0.9-0.6-0.8-1.9-0.6-3c0.5-2.1,1-4.4,0.7-6.4c0.1-0.4,0.1-0.9,0.1-1.3
		c-0.1-0.7-0.6-1.2-1.1-1.4c-0.8-1-1.9-2.5-0.9-3.3c0.7-0.6,1.9,0,2.8-0.2c1.2-0.2,1.8-1.5,2-2.6c0.2-1.2,0.2-2.4,0.8-3.4
		c0.4-0.8,1.2-1.3,1.5-2.1c1.2-2.8-3.4-5.3-3-8.3c0.3-1.9,2.4-2.8,4.1-3.8c1.7-1,3.2-3.3,1.9-4.7c-0.7-0.8-2-0.8-3-1.1
		c-1.1-0.3-2.1-1.4-1.6-2.4c-0.8,0-1.6,0-2.3,0c-0.5-1.4-2.7-1.8-3.7-0.7c-0.3-1.5-0.2-3.1,0.3-4.5c-1.3,0.5-2.6-0.9-2.6-2.3
		s0.9-2.5,1.7-3.6c1.2-1.8,4.3-1.2,5.4-3.1c0.5-0.9,0.3-2.1,0-3.2c-0.3-1.1-0.6-2.3-0.9-3.4c-0.2-0.7-0.4-1.6-1.1-1.9
		c-0.6-0.3-1.4-0.2-2.1-0.2c-2-0.1-3.8-2-3.6-4c-5.1-2-8.6-7.6-8.1-13.1c0.1-1.6,0.2-3.7-1.3-4.2c0-0.6,0-1.1,0.1-1.7
		c1.2,0.8,3.1-0.3,3-1.7c0-0.4-0.2-0.8-0.1-1.2c0.1-0.4,0.7-0.7,0.9-0.3c-0.5-1.6,1.3-2.5,2.2-3.9c0.7-1.1,0.5-2.4,0.4-3.7
		c-0.1-1.1-0.3-2.2-0.8-3.2c-0.6-0.9-1.7-1.6-2.8-1.2c-1.5-4-2.3-8.4-2.1-12.7c1.1,0.4,2.2,0.9,3.3,1.3c0.6-0.7,1.1-1.4,1.7-2.1
		c1.4,1.9,3.7,3.1,6.1,3.3c0.6,0,1.2,0,1.6-0.3c0.5-0.4,0.6-1,1-1.5c0.6-0.9,1.8-1.2,2.7-1.6c1-0.5,1.9-1.4,1.7-2.4
		c-0.2-0.7-0.8-1.1-1.3-1.6c-4.2-3.9-0.1-11.6-3.1-16.5c-0.7-1.1-1.7-2-2.3-3.1c-0.7-1.1-0.9-2.6-0.1-3.6c0.3-0.4,0.8-0.6,1.1-1.1
		c0.4-0.5,0.5-1.3,0.5-2c0-2.9-1.1-5.7-2.9-7.9c-0.6-0.7,0-2.1,0.7-2.7c0.7-0.6,1.6-1,1.9-1.8c0.8-1.8-1.7-3.6-1.5-5.5
		c1.5,0.3,2.7-1.4,2.5-2.9c-0.1-1.5-1.1-2.7-1.9-4c-0.8-1.3-1.4-2.8-0.9-4.2c1-2.3,4.9-3.3,4.4-5.7c-0.1-0.6-0.6-1.2-0.8-1.8
		c-0.3-0.9,0-1.8,0.1-2.7c0.6-4.1-2.3-8.1-2.2-12.3c0-1,0.3-2.1,0.9-2.9c1.3-1,2.8-1.3,3.9-0.2c0.3-0.3,0.5-0.6,0.6-1
		c1.6-0.9,1.6-3.6,1.2-5.5c-2.1,0.5-4.3-1.2-5.2-3.2c-0.9-2-0.7-4.3-0.6-6.5c1.7,0.3,3.5,0.7,5.2,1c0.2-1.4,0.1-2.8-0.4-4.1
		c1.9-0.7,3-1.6,4.1-3.3h-2.4c0-0.1,0.1-0.1,0.1-0.2c0.6-1.1,0.4-2.5,0.1-3.8c-1.1-4.6-2.2-9.2-3.3-13.8c3.3,0.7,6.6,1.4,9.9,2.1
		c-2-1-2.3-3.8-1.6-5.9c0.7-2.1,2.1-4,2.7-6.1c0.9-3.4-0.4-6.9-0.7-10.4c-0.4-3.8,0.5-7.8,2.3-11.2c2.8-0.3,3.4-4.2,5.3-6.3
		c3.3-3.5,10-0.9,13.4-4.3c3-3,1.2-8-0.4-11.9c-2.4-5.8-3.9-11.9-5.4-18c-0.2-0.9-0.4-1.8-0.7-2.7c-0.9-3.8-1.9-7.5-2.8-11.3
		c0.7-2.6-1.3-5-3.1-7c2.4-0.7,4-3.3,4.1-5.8c0.1-2.5-1-4.9-2.4-7c-1.2-1.7-2.6-3.7-1.9-5.7c0.7-1.9,3.1-2.4,4.4-3.9
		c3-3.3-0.2-8.4-3.4-11.6c2.8,1.4,5.2-2.7,4.8-5.8c-0.4-3.1-1.8-6.5-0.1-9c1.4,0.5,2.7,1,4.1,1.5c0.7-2.8-0.7-6-3.2-7.5
		c0.9-2.6,5.8,0,7.4-2.2c0.6-0.8,0.5-2.1,1.2-2.7c0.9-0.8,2.3-0.1,3.5-0.2c2.2-0.1,3.5-2.6,3.8-4.8c0.3-2.2,0.1-4.6,1.3-6.5
		c0.2-0.4,0.6-0.6,0.9-0.9c0.1,0,0.1,0,0.2,0c0,1.1,1.4,1.7,2.4,1.3c0.6-0.2,1.1-0.6,1.5-1.1c0.1,0.2,0.2,0.4,0.3,0.6
		c0.1-0.5,0.2-0.9,0.3-1.4c0.1-0.1,0.2-0.2,0.2-0.4c0.7-1,1.4-2.1,1.6-3.3c0.3-1.5-0.2-3.1-0.6-4.6c0.1-1.4,0.2-2.8,0.3-4.2
		c0.1-0.1,0.2-0.2,0.3-0.3c0.4-0.4,1-0.7,1.3-1.3c0.2-0.5,0.1-1.2-0.1-1.7c-0.6-2.3-1.2-4.6-1.7-7c-0.2-2.6-0.5-5.2-1-7.7h-0.6
		c-0.4-2.5-0.7-5.2,0.9-7c-2.6,1.2-5.8-2-4.7-4.6c1.6,0.7,3.4-0.1,4.6-1.4s1.7-2.9,2.2-4.5c1.1-3.5,2.3-6.9,3.4-10.4
		c0.6-1.7,0.5-4.5-1.4-4.4c2.4-1,4-3.5,4.3-6.1c0.1,0.1,0.1,0.1,0.2,0.2c0.7,0.5,1.8,0.3,2.2-0.5c0.4-0.7,0.2-1.7,0.2-2.5
		c-0.1-2.8,2.8-5.2,5.5-4.7c0.7-3-0.5-6.5-3-8.3c0.6-1.2,2.5-0.9,3.6-0.2c1.2,0.7,2.6,1.6,3.8,0.9c1.1-0.6,1.2-2.1,0.8-3.2
		c-0.4-1.2-1.1-2.2-1.3-3.4c-0.4-2,0.5-4,0-6c-0.8-0.2-1.5-0.4-2.3-0.5c1.2-1.3,2.5-2.5,4-3.5c-1.8-0.9-2.3-3.1-2.2-5.1
		c0.1-2,0.8-3.9,0.6-5.8c-0.1-1.5-0.8-3-0.8-4.5c-0.1-2.5,1.6-4.8,2.1-7.3c0.5-2.5-1.1-5.9-3.6-5.3c-1.1,0.3-2.2,1.3-3.3,0.8
		c-1.2-0.6-0.8-2.4-1.1-3.8c-0.5-1.8-2.7-3.1-2.5-5c0.2-1.2,1.3-1.9,2.1-2.8c2-2,2.5-5.3,1.3-7.9c-1.7-3.6-6.3-6.1-5.7-10
		c0.2-1.2,1-2.3,1.1-3.6c0.1-1.6-0.9-3-1.9-4.4c-0.4-1.7-1.1-3.2-2-4.7c0.1-0.2,0.1-0.5,0.2-0.7c-4.1-2.6-0.3-10.8-4.6-13.1
		c1.2-0.1,2.5-0.1,3.7-0.2c1.6-0.3,2-2.6,1.1-3.9c-0.9-1.3-2.5-1.9-4-2.5c-1.5-0.6-3.1-1.3-3.7-2.8c-0.4-0.9-0.4-2-0.7-2.9
		c-0.3-1-0.9-2-1.4-2.9c-4.1-7.6-1.9-16.9,1.1-25.1c0.3,0.1,0.6,0.3,0.8,0.5c0.2,0.2,0.4,0.4,0.6,0.6c0.2,0.9,0.5,1.9,1.3,2
		c1.2,0.2,1.2-1.8,1.6-3c0.5-1.5,2.3-2.3,2.8-3.8c0.4-1.2-0.3-2.5-0.6-3.8c-0.5-2.2,0.2-4.6,0.8-6.7c1.7-5.4,3.4-10.7,5-16.1
		c3,1.2,6,0.3,8.2-2.2h-1c0.4-0.3,0.7-0.7,0.8-1.2c0.3-0.9,0.1-1.9-0.1-2.8c-0.5-2.4-1-4.7-1.5-7.1c2.2-5.4,2.3-11.6,0.4-17.1
		c-0.4-1.1-0.9-2.2-1-3.4c-0.3-2.2,0.6-4.5-0.2-6.5c-0.5-1.3-1.6-2.2-2-3.5c-0.7-1.9,0.2-3.9,1-5.7c0.5-1.2,1.1-2.5,2.2-3.2
		c0.9-0.6,2-0.8,2.9-1.3c1.7-0.9,2.7-2.8,3.3-4.7c0.9-2.6,1.2-5.3,1.5-8c0.3-2.6,0.6-5.2,1-7.8c0.3-0.2,0.7-0.5,1-0.7
		c1.9-1.6,1.8-4.9,0-6.6c0-0.3,0.1-0.5,0.1-0.8c1.5-2.2,3.6-4,6.1-5c1.3-0.5,2.8-1.1,3.2-2.4c0.3-1.1-0.3-2.2,0-3.3
		c0.1-0.4,0.5-0.7,0.9-0.7c0.6,0.1,1,0.5,1.1,1.1c0.1-0.2,0.3-0.5,0.4-0.7c1.2-0.8,1.7-2.3,2.2-3.8c0.3-0.6,0.4-1.2,0.6-1.9
		c0.5-1.4,1.5-2.8,2.7-3.4c0.4,0,0.8-0.1,1.2-0.3c0.3,0,0.7,0,1.1,0.2c0.2-0.6,0.4-1.3,0.6-1.9c0.4-0.8,0.6-1.6,0.7-2.5
		c0.7-2.4,1.4-4.9,2.2-7.3c0.2-0.1,0.5-0.2,0.7-0.3c0-0.7,0-1.5,0-2.2c0.3-0.9,0.6-1.9,1.4-2.5c0.4-0.3,1-0.5,1.4-0.8
		c1.6-1.1,1.4-4-0.4-4.9c1.3,0.5,2.6-1,3.1-2.3c0.5-1.4,1-3,2.4-3.4c-1.5-2.4-0.6-5.9,1.8-7.4c2.4-1.4,5.9-0.5,7.3,1.9
		c0.2-0.8,0.4-1.6,0.7-2.4c0.7,0.2,1.4,0.1,2-0.1c0.3,0.1,0.5,0.2,0.8,0.1c0.4-0.1,0.5-0.5,0.7-0.9c1.1-0.8,2.2-1.7,3.3-2.3
		c0.7-0.1,1.3-0.2,1.8-0.5c0.4,0,0.8,0.1,1.2,0.4c-0.6-2,0.4-4.3,2.2-5.3L511,400.4l0.4-9.6l6.6-4.8l-3.3-19.1
		c0.3-0.5-0.3-1.2-0.7-1.5c-0.5-0.3-1.1-0.4-1.4-0.9c-0.9-1.4,1.9-3.2,0.9-4.6c-1.2-0.6-2.6-1.2-3-2.5c-0.5-1.3,0.7-3,2-2.5
		c-0.5-3.2,0-6.6,1.4-9.5c0.4-0.7,0.9-1.5,1.7-1.7c1.3-0.3,3,0.8,3.7-0.3c-0.6-2.3-1.3-4.6-1.9-6.9c-0.2-0.7-0.4-1.4-0.9-1.9
		c-0.3-0.4-0.8-0.7-1.3-1c-1.6-1.1-2.9-2.6-3.9-4.2c-0.1-0.2-0.3-0.5-0.3-0.7c0-1,1.5-1.2,2.1-2c0.6-0.8,0.2-2,0.3-3
		c0-0.3,0.2-0.6,0.4-0.8h0.3c0.1-0.1,0.2-0.3,0.3-0.4c0.4-0.2,0.9-0.2,1.1,0.3c0.6-1.5,1.3-3.1,1.9-4.6c0-0.1,0.1-0.1,0.1-0.2
		c1.3,0.1,2.6,0.1,3.7-0.5c1.2-0.6,2-2.1,1.4-3.3c0.1,0,0.1,0,0.2,0l34.6-15.3l2.4-8.2l9.8-32.9l-0.2-0.2l0.2-0.7l-6.6-7.4l-0.4,0.1
		l-0.2-0.2l-14.4,3.9l-8.4-1.6c-0.3-0.4-1-0.7-1.1-1.2c-0.3,0.4-1,0.2-1.3-0.1c-0.1-0.1-0.1-0.2-0.2-0.3c-0.2-0.6-0.1-1.2,0-1.8
		c0.4-2,0.5-4.1,0.2-6.2c0.1-0.3,0.2-0.7,0.3-1c0.3-0.1,0.7-0.1,1-0.2c0.6-0.6,0.3-1.7-0.3-2.3c-0.2-0.2-0.3-0.3-0.5-0.5
		c0,0,0-0.1,0-0.1c-0.2-0.9-0.6-1.8-1.1-2.6c0.1-0.8,0.3-1.4-0.4-1.4h-0.4c-0.7-1.1-1.3-2.2-1.4-3.4c-0.1-1.1,0.2-2.3,0.3-3.4
		c0.3-2.7-0.6-5.6-2.4-7.7c-0.8-0.9-1.8-1.8-2.4-2.9c-1.6-3,0.4-6.9-0.9-10l-3.5-6l0.6-10.5l-8.9-15.5c-1.7,1-4.2,0-5.1-1.8
		c-0.9-1.8-0.7-3.9-0.6-5.9c1.7-0.8,3.2-2.1,4.4-3.6c-4.8-2.2-10-4.9-11.6-9.9c0.9-0.2,1.8-0.4,2.7-0.5c-0.2-3.8-0.5-8.2-3.5-10.6
		c0.7-1.6,3-1.3,4.7-1.5c3.7-0.5,5.9-5.4,3.9-8.5c-2-1.4-3.9-2.7-5.9-4.1c0,0,0,0,0,0c0.1-0.5,0.4-0.8,0.7-1.2
		c0.2-0.2,0.3-0.4,0.5-0.6c0.4-0.1,0.8-0.1,1.1-0.3c0.8-0.3,1.3-1.1,1.8-1.8c1.7-2.5,3.3-4.9,5-7.4c0,0,0-0.1,0.1-0.1
		c0.5-0.6,1-1.2,1.4-1.7c-0.3-0.2-0.5-0.4-0.8-0.6c-0.2-0.7-1-1.3-1.6-1.7c-2.2-1.5-4.3-3.1-6.3-4.8c-2.9-2.5-5.7-5-8.4-7.6
		c-1.3-1.2-2.5-3.1-2.3-4.6c0.2-0.3,0.5-0.6,0.6-0.9c0-0.1,0-0.2,0.1-0.3c0,0,0.1-0.1,0.1-0.1c-0.1-2.9-1.6-5.5-3.2-7.9
		c-0.3-0.4-0.6-0.8-0.8-1.3c-0.2-0.6-0.2-1.2-0.1-1.8c0-0.2,0-0.3,0-0.5c0.2-0.1,0.5,0,0.7,0.1c0.7-2,0.4-4.2-0.8-5.9
		c-0.2-0.2-0.3-0.5-0.5-0.7c-0.1-0.5-0.2-1-0.4-1.5c0.2-0.9,1.1-1.7,0.6-2.5c-0.2-0.2-0.5-0.4-0.7-0.6c-0.6-0.6-0.5-1.5-0.5-2.3
		c-0.1-0.8-0.6-1.8-1.4-1.8l-0.7,0.5c-0.3-0.7-0.6-1.4-0.2-2c0.3-0.5,0.9-0.7,1.3-1c1.1-1,0.5-2.8-0.7-3.7c-1.2-0.8-2.7-0.9-4.1-1.2
		c-1.4-0.3-2.9-0.8-3.6-2.1c-0.8-1.5,0-3.3-0.2-5c-0.4-4.5-5.7-6.8-5.5-11.3c-2,2.9-5.4,5-8.8,5.7c-0.8,0.2-1.6,0.3-2.2,0.7
		c-2.1,1.4-1,4.6-0.3,7c1.4,4.9-0.4,10.5-4.3,13.8c-3.3,2.7-7.7,3.7-12,3.9c-2.5,0.1-5.1,0-7.5,0.8c-2.4,0.8-4.7,2.8-4.8,5.3
		c-0.6,9.4,1.8,19.4,4.3,28.8c1,7.4,2.8,14.7,5.5,21.7c0.9,2.4,1.6,5.7-0.1,7.2c-0.3,0.1-0.7,0.2-1.1,0.3l0.6,0
		c-0.1,0-0.1,0.1-0.2,0.1c-1.1,0.5-2.4,0.3-3.6,0.7c-2.6,0.9-3.2,4.5-2.1,7.1c1,2.6,3.1,4.6,4.2,7.2c3.3,7.6-2.8,16.8,0.3,24.4
		c1.1,2.7,3.2,4.8,4.2,7.5c3.1,8.2-4.8,16.6-4.4,25.3c-4.3-1.5-8.7,3-9.1,7.6c-0.4,4.5,1.7,8.9,3.1,13.2c1.7,5.3,2.5,10.8,2.2,16.4
		c0,0.8-0.1,1.6-0.5,2.2c-0.7,1-2,1.2-3.1,1.4c-4.6,0.7-10.1,2.3-11,6.8c-0.8,4.4,3.7,8.9,1.8,13c-0.9,1.9-2.9,3-4.2,4.7
		c-1.9,2.7-1.3,6.5,0.6,9.2c0.4,1.3,1.2,2.3,2.5,2.7c0,0,0.1,0,0.1,0c1.7,1.4,3.7,2.6,5.7,3.7c1.9,3.6-0.4,7.6-1.6,11.5
		c-2,6.9-2.7,14.2-1.8,21.3c0.3,5.3,1.5,11.2,3.8,15.5c1,1.8,2.4,3.6,1.9,5.6c-0.7,2.7-4.7,3.7-4.9,6.4c-0.1,1.8,1.6,3.5,0.8,5.1
		c-0.8,1.5-2.9,1.2-4.6,1.3c-3,0.3-5.5,3.2-5.4,6.2c0.1,3,2.9,5.7,5.9,5.7c-0.7,2.9-0.1,6.1,1.7,8.4c0.5,0.7,1.1,1.3,1.4,2.1
		c0.3,0.7,0.2,1.6,0.2,2.3c-0.1,1.6-0.2,3.2-0.3,4.9c-0.1,1.4-0.2,2.9-1.3,3.8c-0.8,0.7-2,0.8-3,1.2c-1.4,0.5-2.4,1.5-3.1,2.7h-0.2
		c-0.3,0.5-0.4,1-0.4,1.5c-0.7,2.4-0.1,5.2,1.9,6.8c0.7,0.5,1.4,0.9,1.9,1.5c1.2,1.4,0.6,3.9-1.2,4.6c0.1,5-8.6,8.5-7.8,13.4
		c0.2,1.2,0.9,2.2,1.3,3.3c0.1,0.9,0.1,1.8,0.2,2.7c0.1,0.5,0.1,1.1,0.2,1.6c-0.2,2.2-0.8,4.5-0.5,6.7c0.2,1.3,0.6,2.6,0.5,4
		c-0.2,2-1.6,3.5-2.7,5.1c-2.1,3.1-2.8,6.9-3.5,10.8c-0.5,2-0.9,4.1-1.1,6.2c-0.8,3.7-2,7.1-4.8,9.6c-0.2,0.2-0.4,0.3-0.5,0.4
		c-1.2,0.4-2.3,0.9-3.2,1.8c-1,0.9-1.7,2.2-1.9,3.5c-1,2.6-0.7,5.7,1,7.9c0.5,0.6,1.1,1.1,1.3,1.8c1.1,2.7-2.2,4.9-4.4,6.8h1.9
		c-2.1,2.2-4.3,4.5-4.2,7.5c0.1,2.8,2.2,5.2,2.1,8c0,2-1.2,4.4,0.1,5.9c0.5,0.6,1.3,0.9,1.6,1.6c0.9,1.6-0.9,3.3-1.2,5.1
		c-0.3,1.8,0.9,3.4,1.8,5c0.9,1.5,1.6,3.7,0.3,5c-0.7,0.7-1.7,0.9-2.5,1.4c-3,1.8-2.1,6.4-0.4,9.5c1.7,3.1,3.7,6.9,1.8,9.8
		c-2-0.7-4.2,0.3-5.5,2c-1.3,1.6-1.9,3.7-2.3,5.7c-2.3,10-2.5,20.4-0.8,30.5c0.5,3,1.2,6,1.8,9.1c0.7,5.1,1.5,10.1,2.6,15.1
		c0,0.5,0.1,1,0.1,1.5c0.3,4.2,0.4,8,0.3,12.2c-0.2,5.1-1.3,10.3,0,15.2c0.8,2.9,2.4,5.5,3.5,8.3c0.3,1.4,0.7,2.8,1.1,4.2
		c0.3,1.3,0.7,2.5,1,3.8c0.2,0.7,0.4,1.4,0.2,2.1c-0.1,0.5-0.4,1-0.8,1.5c-1.4,2-2.8,4-4.2,6c-3.3,0.1-6.7,0.1-10,0.2
		c-0.8,0-1.6,0-2.3,0.4c-0.7,0.3-1.2,1-1.5,1.6c-1.2,2.3-0.8,5.3,0.9,7.2c1.7,1.9,4.6,2.7,7,1.8c0.6,2.6,1.2,5.3,1.7,7.9
		c0.2,0.7,0.3,1.5,0.1,2.2c-0.3,0.9-1.1,1.5-1.5,2.3c-0.8,1.6,0.2,3.5,0.9,5.3c1.2,3.1,0.8,6.8-0.8,9.7c-2.8,0-4.7,2.8-5.8,5.4
		c-2,4.4-3.6,9.1-4.8,13.8c-0.2,0.7-0.4,1.4-0.9,1.8c-0.5,0.3-1.1,0.4-1.7,0.5c-2.5,0.4-4.9,1.9-5.9,4.2c-1,2.3-0.2,5.4,2,6.6
		c0.7,0.4,1.5,0.6,2.2,1.1c0.6,0.4,1,1,1.3,1.6c1.9,3.5,0.8,7.8-0.8,11.5c-1.6,3.6-3.7,7.2-3.8,11.2c-0.1,2.8-3.2,5.4-5.8,6.5
		c-2.6,1.1-5.5,1.3-8.2,1.9c-1.2,0.2-2.3,0.5-3.3,1.3c-2.2,1.6-2.2,5.4-0.1,7c1.4,1.1,3.8,1.7,4,3.5c0.1,0.7-0.2,1.3-0.7,1.9h-4.5
		c-2.4,0-2.8,3.4-2,5.7c0.7,2.2,2.2,4.6,1.3,6.8c-0.5,1.3-1.8,2.1-2.7,3.2c-2,2.4-2.1,5.8-2.4,8.9c-0.6,6.2-2.1,12.4-4.5,18.1
		c-1.6,3.7-3.5,7.3-6.6,10c-2.6,0.1-5.3,0.2-7.5,1.4c-2.3,1.2-3.9,4-3,6.4c0.8,2.1,3,3.1,4.6,4.6c1.6,1.5,2.6,4.4,0.8,5.7
		c-3-1.6-6.1-3.2-9.1-4.9c-3.1,9-6.1,17.9-9.2,26.9c-0.6,1.7-1.2,3.6-0.9,5.4c0.4,2.2,2,3.9,3.3,5.6c5.7,7.3,7.8,17.3,5.6,26.2
		c-0.4,1.4-0.9,3-2.2,3.7c-2.9,1.6-5.9-2.4-9.2-2.6c-3-0.2-5.5,3.1-5.1,6.1c0.4,3,3.1,5.3,5.9,6.2c1.8,0.5,3.7,0.7,5.4,1.5
		c2.1,1,3.6,3.1,4.8,5.1c6,9.9,9.3,21.3,9.4,32.9c0.1,4.8-0.7,10.2-4.3,13.3c-1.3,1.1-2.9,1.9-3.7,3.4c-1,1.9-0.3,4.5-1.5,6.3
		c-1.1,1.6-3.4,1.9-5,3.1c-3.3,2.6-1.9,7.7-2.8,11.8c-0.5,2.2-1.7,4.2-2.1,6.4c-0.3,1.8-0.1,3.5,0.1,5.3c0,0.1,0,0.2-0.1,0.4
		c-0.2,1.7,0.1,3.5,0.3,5.2c-0.6,4.5-3,9.2-4.1,13.5c-0.3,1.2-0.4,2.5-0.6,3.8c-1,2.4-1.8,4.9-2,7.4c-0.1,0.2-0.3,0.4-0.5,0.5h0.4
		c0,0.6,0,1.2,0,1.8c0.5,5.8,4.7,11.3,3.3,16.9c-0.6,2.2-2,4.4-1.5,6.6c0.6,2.6,3.9,4.5,3.3,7.1c-0.5,2.2-3.3,2.9-5.2,4.2
		c-4.9,3.6-2,11.4-3.4,17.4c-0.5,2.1-1.6,4-2.6,6c-4.4,8.8-5.7,19.2-3.8,28.8c0.5,2.3,1.1,4.6,0.8,6.9c-0.4,2.9-2.3,5.3-3.7,7.8
		c-2.7,4.8-3.9,10.3-3.6,15.7c0.1,1.6,0.3,3.4-0.6,4.8c-2,3.1-6.7,1.2-10.3,1.8c-4.1,0.7-6.8,5.6-5.7,9.6c1.2,4,5.6,6.7,9.8,6.4
		c5-0.4,10.8-4,14.4-0.5c1.9,1.8,2,4.8,1.1,7.3c-0.9,2.4-2.5,4.5-3.9,6.7c-2.7,4.4-4.3,9.5-4.5,14.6c-1.8,3.9-5.9,6.9-10.1,8.8
		c0,0-0.1,0-0.1,0c-3.6,1-7.5,3-8.5,6.6c-0.5,1.7-0.3,3.8-1.5,5c0,0-0.1,0-0.1,0.1c-1.1,0.4-2.2,0.8-3.3,1.4c-0.1,0-0.2,0-0.4,0.1
		c-5.1,1.1-9.4,6.1-8.9,11.3c0.2,1.6,0.9,3.1,1.9,4.3c0.9,1.7,2.3,3,4.2,3.5c4.6,1.2,9.9-2.6,14.1-0.4c2.6,1.4,3.6,4.6,4.3,7.5
		c1.4,5.4,2.4,12-1.8,15.6c-1.6,1.4-3.7,2-5.4,3.3c-3.3,2.4-4.7,7.1-3.2,10.9c-4.5-0.5-7.7,4.5-8.1,9c-0.4,4.5,0.9,9.1-0.2,13.5
		c-2.8,11.8-20.4,16.2-21.6,28.3c-0.7,7,4.7,13,9.7,17.9c1.8,1.7,3.6,3.6,6,4.3c3.1,1,6.8-0.3,8.6-3c1.8-2.7,1.7-6.6-0.3-9.1
		c2.2-1.5,5.2-0.6,7.7,0.3c5.3,2,11,4.4,13.5,9.5c2.6,5.4,0.6,11.8-1.5,17.4c-1.5,4.1-3,8.1-4.5,12.2c-0.5,1.4-1,2.8-2.1,3.7
		c-2.2,1.9-5.5,1.1-8.3,0.6c-3.6-0.7-7.4-0.7-10.8,0.7c-3.4,1.4-6.2,4.6-6.4,8.3c-0.1,2.3,0.7,4.6-0.2,6.7c-1,2.3-3.6,3.3-5.2,5.2
		c-2.6,3.1-1.9,7.3-1.1,11.5c-0.6,5.3-1.2,10.7-1.6,16.1c-0.4,1.2-0.8,2.4-1.2,3.6c-0.6,2-0.1,4.6,0.2,7.1c-0.3,3.4-0.7,6.7-1,10
		c-0.9,3.2-1.7,6.4-0.9,9.5c-0.1,2.9,0,5.8,0.9,8.6c1.5,5.2,5.2,9.9,4.7,15.3c-0.3,2.8-1.7,5.4-2.9,8c-1.9,4.5-3,9.3-3.2,14.2
		c0,1.4,0,2.9,0.7,4.2c0.7,1.4,2.1,2.4,3.2,3.6c4.2,4.6,3.6,11.7,3.1,17.9c-0.7,7.7-1,15.4-0.8,23.2c0.1,6.3,1.3,13.8,6.9,16.6
		c1.4,0.7,3.1,1.1,4.4,2c2,1.3,2.9,3.7,3.4,6.1c2,9.6-2.9,19.2-7.3,28c-1.7,3.5-3.5,7.6-1.8,11.2c1.2,2.5,3.7,4,5.4,6.2
		c1.5,2.1,2.2,4.6,2.9,7.1c2.2,7.7,5.2,15.1,8.8,22.2c0.8,3.1,2.4,6,4.6,8.4c2.7,4.5,6.3,9.1,11.5,9.7c1.6,0.2,3.2,0,4.8-0.2
		c0.8,1.5,0.9,3.3-0.3,4.4c-4.8-3.1-12.2-0.7-14.3,4.6c-2.2,5.5,1,11.7,4.9,16.2c3.9,4.5,8.7,8.5,10.7,14c2.1,5.8,2.2,14.3,8.3,15.4
		c1.1,0.2,2.4,0.1,3.4,0.6c1.5,0.7,2.2,2.5,2.8,4.1c2.7,6.8,8,12.5,14.6,15.7c2.2,1.1,4.8,2.1,5.7,4.3c1.3,3.2-1.5,6.4-2.5,9.7
		c-2.3,7.5,4.8,14.6,12,17.7c7.2,3.1,15.5,4.5,20.8,10.3c1.9,2.1,3.2,4.6,4.9,6.9c3.2,4.4,7.4,8,11.6,11.5
		c4.9,4.1,9.9,8.3,15.9,10.4c2.5,0.9,5.2,1.4,7.4,2.9c4.3,2.7,6.1,8,9.8,11.4c6.1,5.6,15.7,5.3,22.5,10c2.4,1.6,4.3,3.8,6.9,5.2
		c2.5,1.3,6.1,1.5,7.9-0.7c2.7,7.6,10.5,11.8,17.7,15.4c7.4,3.6,14.7,7.3,22.1,10.9c3.7,1.8,7.6,3.7,11.7,3.8
		c8.5,0.2,17.4-7.2,24.8-2.9c4.1,2.4,5.7,7.3,7.5,11.7s5.1,9,9.9,9c5.7,0,11.5-0.8,17.2-0.1c6.4,0.8,14,3.4,18.6-1.1
		c4.6-4.5,2.1-12.4-1.5-17.8c-3.6-5.4-8.1-11.4-6.4-17.7c0.2-0.8,0.5-1.6,1.2-1.9c1.1-0.6,2.4,0.4,3.4,1c3.8,2.5,10.6,1.2,10.7-3.4
		c6,0.9,12.8-0.3,16.5-5.1C600.4,1866.5,598.6,1857.9,592.6,1856.8z M452.7,562.7c0.1-0.1,0.1-0.3,0.2-0.4c0.3,0.1,0.6,0.3,0.8,0.4
		H452.7z"/>
	<path class="st3" d="M448.2,194.6c6.1,0.3,12.1,0.6,18.2,0.8c1.2,0.1,2.5,0.1,3.6,0.8c1.2,0.8,1.7,2.3,2.5,3.5
		c0.8,1.2,2.4,2.2,3.6,1.4c0.7-0.5,1-1.4,1.4-2.2c1.4-3.1,4.5-5,7.7-6.1c3.2-1,6.6-1.4,9.8-2.2c8.6-2.3,16-8.5,19.8-16.5"/>
	<path class="st3" d="M431.6,380.9c1.8,1,4.2,0.6,5.6-0.9c0.4-0.4,0.7-0.9,1.1-1.4c0.5-0.5,1.1-0.8,1.8-1.1c5.1-2.1,11.1-2.1,16.3,0
		c2.3-3.4,7.4-1.8,11.5-1.3c3.4,0.4,6.9-0.2,10.3-0.8c1.4-0.3,2.8-0.5,4.2-0.8c3.4-0.6,7.4-1.6,8.9-4.8c1.3-2.7,0.4-6.1,1.9-8.7
		c0.4-0.7,1-1.3,1.2-2.1c0.5-1.9-1.2-4.2,0.1-5.7c2,1,4.3,0,6.5-0.3c2.2-0.3,5.1,1,4.6,3.2c1.1-3.2,3.9-5.7,7.1-6.6"/>
	<path class="st3" d="M397.3,511.8c2.5,0.6,5.2,1.3,7.5,0.2c1.1-0.5,2.1-1.3,3.2-1.5s2.7,0.7,2.4,1.9c1.2,0.1,2.4,0.1,3.5,0.2
		c-0.7,1.6,0.2,3.8,1.8,4.4c0.8,0.3,1.6,0.3,2.3,0.8c0.5,0.4,0.8,1,1.4,1.2c1.4,0.6,2.4-1.5,2.3-3c-0.1-1.5-0.5-3.3,0.6-4.3
		c1.1-0.9,2.8-0.3,4.2-0.6c2.6-0.5,3.7-3.8,6.2-4.7c1.9-0.7,4.2,0.3,5.5,1.9c1.3,1.6,1.7,3.8,1.9,5.8c0.2,2.3,0.5,5,2.6,6
		c1.1,0.5,2.4,0.4,3.6,0.7c2.4,0.7,3.8,3.2,5.6,4.9c1.8,1.7,5.4,2.4,6.4,0.1"/>
	<path class="st3" d="M393.7,642.8c3,1.6,6.1-2.4,9.5-2.3c1.7,0.1,3.1,1.1,4.7,1.6c3.1,1,6.3-0.1,9.4-1.2c1.3-0.5,2.6-1,3.5-2
		c0.3-0.4,0.6-0.9,1-1.2c0.4-0.3,0.9-0.5,1.4-0.6c2.2-0.6,4.4-1.3,6.6-1.9c1.2-0.4,2.8-0.7,3.7,0.3c1.4,1.4,0,4.5,1.7,5.7
		c1.2,0.8,2.9-0.2,4.1,0.5c0.5,0.3,0.8,0.8,1.1,1.3c0.3,0.6,0.7,1.2,1,1.7c0.9,1.5,1.9,3.1,3.4,4.1c1.5,1,3.7,1,4.9-0.3"/>
	<path class="st4" d="M380.1,714c3.6,1.3,6.8,3.3,10.4,4.8c3.8,1.6,3.6,0.6,7.3-1.5c1.7-1,3.2-3.2,1.9-4.7c1.2-0.7,2.7,0,4,0.4
		c1.3,0.4,3.3,0.2,3.5-1.2c0.3-1.8-2.7-3.2-1.8-4.8c2-1,3.7-2.6,4.8-4.6c-1.7-0.1-3.2-1.8-3-3.5c0.2-1.7,2-3,3.7-2.7
		c0.7,0.1,1.3,0.4,1.9,0.5c1.9,0.2,3.3-1.7,4.5-3.3c1.1-1.6,3.1-3.2,4.8-2.2c-0.7-3.2-2.8-6.2-2.4-9.4c0.2-1.7,1.1-3.2,2.2-4.4
		c3.8-3.8,11.1-3.2,14.2,1.2c0.9,1.2,1.5,2.7,2.8,3.3c1.2,0.6,2.7,0.4,4.1,0.7c2,0.5,3.4,2.1,5.3,3s4.7,0.3,4.9-1.7"/>
	<path class="st5" d="M456,733.3c-2.5-2.4-5.1-4.7-7.6-7.1c-0.4-0.4-0.9-0.8-1.4-0.5c-0.3,0.1-0.4,0.4-0.7,0.5
		c-0.9,0.6-1.9-0.7-2.3-1.8c0.8,0.6,2-0.2,2.2-1.2c0.2-1-0.3-1.9-0.9-2.7c-0.6-0.8-1.3-1.6-1.6-2.5l-0.9-2.4
		c-1.5-0.4-3.5-0.5-4.2,0.9c-0.1,0.3-0.2,0.7-0.5,0.9c-0.4,0.2-0.8-0.1-1.3-0.2c-1.3-0.4-2.6,0.7-3.8,1.5c-1.5,1-3.6,1.4-5,0.3
		c1,2.9-0.6,6-2.5,8.4c-1.1,1.5-2.5,3.1-4.4,3.3c-0.8,0.1-1.6-0.1-2.4-0.3c-2.9-0.7-6.1-1.9-7.2-4.7c-0.3-0.7-0.4-1.5-1.1-1.9
		c-0.9-0.4-1.8,0.3-2.6,0.9c-0.8,0.6-2.1,0.9-2.5,0.1c-0.3-0.5,0-1.2-0.3-1.7c-0.4-0.7-1.4-0.6-2.1-0.6s-1.8-0.3-1.8-1.1
		c-0.6,0.9-1.2,1.7-1.9,2.6c-0.8-2.1-4.5-2.2-4.8-4.5"/>
	<path class="st4" d="M375,753.7c1.4,0.9,3.1,1.4,4.7,1.3c0.8,0,1.6-0.2,2.3,0c1.4,0.3,2.2,1.6,3.3,2.4s2.9,1.3,3.7,0.1
		c1.9,2,3.5,4.3,4.8,6.8c0.6-1.2,1.4-2.4,2.3-3.4c0.7,1.7,3.2,1.5,5,1c-0.3,0.8-0.4,1.7-0.1,2.5c0.8,0.4,1.8,0.1,2.5-0.5
		s1.2-1.4,1.8-2.1c1.1-1.4,2.7-2.4,4.5-2.9c0.9,0.6,1.8,1.2,2.7,1.7c1.4-1,2.8-2,4.5-2.2c1.7-0.2,3.3,0.6,4.7,1.5
		c0.4,0.3,0.8,0.5,1.3,0.6c1.2,0.2,2.5-0.8,3.5-0.2c0.8,0.5,1,1.7,1.9,1.8c0.4,0,0.7-0.2,1.1-0.2c1.2-0.2,2.1,1,2.8,2s1.9,2,2.9,1.5
		c0.8-0.4,1.4-1.6,2.2-1.3c0.5,0.2,0.6,0.8,0.8,1.3c1.2,2.3,5.2,0.8,7.1,2.5"/>
	<path class="st4" d="M421.8,835.4c-1.5,0-2.2-1.9-3-3.2c-1-1.7-3.1-2.6-5-2.5c-0.4,0-0.9,0.1-1.1,0.5c-0.2,0.3-0.2,0.7-0.3,1.1
		c-0.3,0.9-1.2,1.5-2.2,1.5c-0.9,0.1-1.9-0.2-2.7-0.6c-1.4-0.5-2.7-1-4.1-1.6c-1.1,1.6-3.5,1.7-5.2,0.9s-2.9-2.5-4.3-3.8
		c-1.3-1.4-3-2.7-5-2.6c-0.3,0-0.6,0.1-0.8,0.3c-0.3,0.4-0.1,0.9-0.2,1.4l-4.3-1.7v-2.6l-3.5-3.2c0.2,1.4-0.5,2.8-1.8,3.4
		c-1.2,0.6-2.8,0.3-3.8-0.7c-0.5,0.9-1,1.8-1.5,2.6c-0.6-0.1-1.3,0.1-1.7,0.5c-1.5,0-2.8-1.5-2.6-2.9c0.8,0.4,2.1,0.8,2.6-0.1
		c0.5-0.9-0.7-1.9-1.7-1.9s-2.1,0.4-3.1,0c-1.1-0.5-1.5-2.2-0.6-3.1c-2.8,0.2-5.1-2-7.7-2.8c-1.3-0.4-2.6-0.5-4-0.7
		c-2.3-0.2-4.7-0.4-7-0.6"/>
	<path class="st4" d="M342.4,832.4c4.5-0.3,9.2,2.3,11.2,6.4c0.5,0.9,0.8,1.9,1.5,2.6c0.9,1.1,2.4,1.5,3.5,2.3
		c2.6,1.8,3.6,5,4.2,8.1c0.1,0.5,0.2,1.1-0.1,1.5c-0.3,0.7-1.2,0.9-1.9,1.2c-0.7,0.3-1.3,1.2-0.9,1.8c2.7-0.4,5.4-0.8,8.2-1.2
		c0.3,0,0.7-0.1,1,0.1c0.5,0.3,0.5,0.9,0.7,1.4c0.8,2.4,4,2.8,6.2,3.9c0.5,0.3,1.1,0.7,0.9,1.3c-0.1,0.3-0.4,0.5-0.7,0.7
		c-1.7,1.2-2.7,3.2-2.6,5.3c0,0.2,0,0.5,0.2,0.6c0.2,0.2,0.5,0.3,0.8,0.3c2.7,0.1,5.5,0.2,8.2,0.4c1,0,1.9,0.1,2.9-0.1
		c1.5-0.4,2.8-1.5,3.4-2.9c1.3-1.3,3.5-0.8,5.3-0.3s4.1,0.7,5.1-0.9c0.5-0.8,0.4-1.9,0.8-2.9c0.4-1.1,1.4-1.9,2.5-2.1
		c1-0.2,2.2,0.3,2.6,1.2c0.1,0.3,0.2,0.6,0.3,0.8c0.2,0.2,0.5,0.4,0.8,0.5c3.7,1.5,7.5,2.5,11.5,2.8"/>
	<path class="st4" d="M316.4,936.6c1.1,1.1,3,0.6,4.1-0.5s1.8-2.5,2.9-3.5c1.4-1.3,3.3-1.8,5-2.9c1.7-1.1,3-2.7,4.2-4.3
		c1.5-1.9,3-3.8,4.5-5.7c0.4-0.5,0.8-1,1.3-1.3c0.9-0.6,1.9-0.6,2.9-1.1c2.3-1.2,2.4-4.9,0.3-6.3c-0.5-0.3-1-0.5-1.5-0.8
		c-1.7-1.2-1.8-4.1,0-5.3c0.4-0.3,1-0.5,1.3-1c0.8-1.1-0.3-2.6,0.1-3.9c2.9,0.1,5.1-3.5,3.7-6c-0.4-0.6-1.3-0.5-2-0.5
		s-1.6-0.5-1.4-1.2c0.1-0.3,0.5-0.5,0.8-0.7c1-0.6,1.6-1.8,1.5-3c3.8-0.8,7.7-0.9,11.5-0.5c2,0.2,4.6,1.4,4.2,3.4
		c1.9,0,3.9-0.3,5.7-1c0.6,4.2,2.3,8.7,6.1,10.6c2,1,4.5,1.2,6.1,2.8c0.8,0.8,1.3,2,2,2.9c0.7,0.9,1.9,1.7,3.1,1.4
		c0.6-0.2,1.1-0.6,1.7-0.7c1.5-0.1,2.3,2.1,3.8,2.1c0.5,0,1-0.3,1.4-0.5c1.7-0.8,3.9-0.3,5.1,1.2c0.3,3,0.6,6.1,0.9,9.1
		c0.1,0.7,0.2,1.4,0.6,1.9c0.7,0.8,2.2,0.7,2.9-0.1c0.8-0.8,0.9-2,0.6-3.1c1.9-0.6,4.2-1.5,4.6-3.5c0.1-0.8,0-1.7,0.4-2.3
		c0.5-0.8,1.7-0.9,2.7-0.9c4.3,0.1,8.5,0.1,12.8,0.2"/>
	<path class="st4" d="M328,972.5c2.8,0.3,5.6,1.2,8.2,2.5c0.6,0.3,1.2,0.7,1.9,0.8c2,0.4,3.9-1.2,5-2.9c0.5-0.8,1-1.7,1.7-2.3
		s1.8-1,2.7-0.6c-0.3,0.6,0.7,1.1,1.3,0.8c0.6-0.2,1.1-0.8,1.8-0.9c1.2-0.1,1.9,1.6,1.4,2.8c-0.4,1.2-1.3,2.1-1.6,3.4
		c1.7-0.7,3.9-0.1,5,1.5c2.5,0.9,5.4,0.7,7.8-0.5c0.1,1.3,1.7,1.9,3,2.1c4,0.6,8.1,0.9,12.1,0.9c0.7,0,1.3,0,1.9-0.3
		c1.2-0.5,1.8-1.8,2.7-2.8c1.1-1.1,2.7-1.7,4.3-1.5c0.7,1.8,2.4,3.1,4.2,3.3c1.1,0.2,2.3,0,3.1,0.7c0.4,0.4,0.7,0.9,0.9,1.4
		c1.3,2.8,3.2,5.3,5.4,7.5"/>
	<path class="st4" d="M308.7,1015.1c3.4,1.9,8.6-1.1,11.4,1.7c0.7,0.7,1.1,1.7,2,2.1c1.8,0.8,3.8-1.2,5.7-0.9
		c1.3,0.3,2.1,1.5,3.1,2.3c1,0.8,2.8,1.1,3.4-0.1c0.1,0.8,1,1.3,1.9,1.4s1.7-0.1,2.5,0.2c0.4,0.1,0.8,0.4,1.3,0.5
		c1.8,0.3,3.6-2.1,5-1.1c0.1,1.5,2.5,1.4,3.6,2.4c0.4,0.4,0.6,0.9,0.8,1.4c0.8,2.2,1.4,4.8,3.3,6.3c0.4,0.3,0.9,0.6,1.3,1
		c0.6,0.6,0.9,1.5,1.4,2.2c1.5,2.3,4.6,2.8,7.3,2.6c2.7-0.2,5.5-0.9,8.1-0.3c1.1,0.2,2.1,0.7,3.2,0.8c1.2,0.1,2.5-0.2,3.7-0.5
		c2.8-0.7,5.5-1.4,8.3-2.1c0.5-0.1,1-0.3,1.5-0.6c0.5-0.3,1-0.8,1.5-1.2c1.4-1,3.2-0.9,4.8-0.8"/>
	<path class="st4" d="M439.6,109.2c4.5,0.6,8.9-1.4,12.9-3.6s7.8-4.8,12.3-5.7c4.1-0.8,8.3-0.1,12.4,0.6c0.6,0.1,1.2,0.2,1.5,0.6
		c0.4,0.5,0.5,1.3,1,1.7c0.3,0.3,0.8,0.3,1.3,0.3c2.4,0,4.7,0,7.1,0c0.5,0,1,0,1.5-0.2c0.5-0.2,0.9-0.7,1.3-1.2
		c2.4-2.8,5.8-4.8,9.4-5.4"/>
	<path class="st3" d="M285.1,1201.5c6.9,0.4,13.9,0.8,20.8,1.2c5.9,0.3,13.1,0,15.7-5.3c3.3,3.7,7.4,6.8,11.9,9
		c2.4,1.1,5,2.1,7.6,1.7c2.6-0.3,5.2-2.1,5.7-4.7c6.7,2.8,14.4-5.5,21-2.5c3,1.4,4.6,4.7,6.8,7.2c3.5,4,9.2,6,14.5,5"/>
	<path class="st3" d="M272.6,1404.8c7.6,3.3,9.5,13.1,9.8,21.4c0.3,8.3,0.8,17.8,7.4,22.8c2.6,2,6.5,3.7,6.4,7
		c1.3,0.4,2.8,0.4,4.2,0c1-2.4,2.4-4.7,4.2-6.6c-0.6,2.5,3.1,3.3,5.5,4c5.5,1.5,8.4,7.4,11.1,12.5c4.8,9.2,11,17.6,18.4,24.9
		c3.1,3.1,7.8,6.1,11.5,3.7"/>
</g>
<rect x="167.7" y="127.5" class="st0" width="209.8" height="67.8"/>
<text transform="matrix(1 0 0 1 313.8905 145.4492)"><tspan x="0" y="0" class="st6 st7">CHILE</tspan><tspan x="-96.6" y="28.8" class="st8 st7">Mapa Simbólico</tspan></text>
</svg>
